{
    "asset" : {
        "generator" : "Khronos glTF Blender I/O v1.7.33",
        "version" : "2.0"
    },
    "scene" : 0,
    "scenes" : [
        {
            "name" : "Scene",
            "nodes" : [
                0
            ]
        }
    ],
    "nodes" : [
        {
            "mesh" : 0,
            "name" : "Plane"
        }
    ],
    "materials" : [
        {
            "doubleSided" : true,
            "emissiveFactor" : [
                1,
                1,
                1
            ],
            "name" : "Ocean",
            "pbrMetallicRoughness" : {
                "baseColorFactor" : [
                    0.03168429061770439,
                    0.18830277025699615,
                    0.5,
                    1
                ],
                "roughnessFactor" : 0.5
            }
        }
    ],
    "meshes" : [
        {
            "name" : "Plane.002",
            "primitives" : [
                {
                    "attributes" : {
                        "POSITION" : 0,
                        "NORMAL" : 1,
                        "TEXCOORD_0" : 2
                    },
                    "indices" : 3,
                    "material" : 0
                }
            ]
        }
    ],
    "accessors" : [
        {
            "bufferView" : 0,
            "componentType" : 5126,
            "count" : 60516,
            "max" : [
                75.26667785644531,
                0.6052043437957764,
                75.10578155517578
            ],
            "min" : [
                -75.06388854980469,
                -0.48889485001564026,
                -75.1385269165039
            ],
            "type" : "VEC3"
        },
        {
            "bufferView" : 1,
            "componentType" : 5126,
            "count" : 60516,
            "type" : "VEC3"
        },
        {
            "bufferView" : 2,
            "componentType" : 5126,
            "count" : 60516,
            "type" : "VEC2"
        },
        {
            "bufferView" : 3,
            "componentType" : 5123,
            "count" : 360150,
            "type" : "SCALAR"
        }
    ],
    "bufferViews" : [
        {
            "buffer" : 0,
            "byteLength" : 726192,
            "byteOffset" : 0
        },
        {
            "buffer" : 0,
            "byteLength" : 726192,
            "byteOffset" : 726192
        },
        {
            "buffer" : 0,
            "byteLength" : 484128,
            "byteOffset" : 1452384
        },
        {
            "buffer" : 0,
            "byteLength" : 720300,
            "byteOffset" : 1936512
        }
    ],
    "buffers" : [
        {
            "byteLength" : 2656812,
            "uri" : "data:application/octet-stream;base64,"
        }
    ]
}
